<svg xmlns="http://www.w3.org/2000/svg" aria-label="svg icon" fill="none" height="126" role="img" viewBox="0 0 542 126" width="542"> <g clip-path="url(#clip0_1_9726)"> <path d="M147.785 0.5H22.7851V125.5H147.785V0.5Z" fill="#B3282D"></path> <path d="M57.7434 51.75C55.5351 50.4167 53.4934 49.7083 46.8267 49.7083H36.4517V91.3333H44.3684V76H48.7434C53.1184 76 54.7851 75.5417 56.6184 74.625C60.9101 72.4583 63.4101 68.0417 63.4101 62.5417C63.4101 57.7083 61.4101 53.875 57.7434 51.75ZM53.7851 67.0417C52.7017 68.7917 51.7434 69.2083 48.5351 69.2083H44.4101V56.5H49.4517C52.7851 56.5 54.7851 58.8333 54.7851 62.75C54.7434 64.6667 54.4517 65.875 53.7851 67.0417ZM36.4517 95.2917H38.2851V112.167H36.4517V95.2917ZM57.1601 99.5833C55.8267 99.5833 54.5351 100.208 53.7851 101.292C52.8267 102.542 52.4101 103.833 52.4101 105.917C52.4101 110 54.2851 112.458 57.4517 112.458C58.8684 112.458 60.2434 111.917 61.2851 110.917L60.6184 109.667C59.9101 110.417 58.9101 110.833 57.8267 110.833C56.7017 110.875 55.6184 110.292 54.9934 109.333C54.6184 108.708 54.4517 107.792 54.4517 106.667V106.333H61.5351V106.083C61.4934 103.167 61.2017 102 60.2434 100.917C59.4517 100.042 58.3267 99.5417 57.1601 99.5833ZM54.4517 104.917C54.5351 102.375 55.4517 101.083 57.0767 101.083C57.9101 101.042 58.6601 101.458 59.1184 102.167C59.4517 102.75 59.6184 103.583 59.6601 104.917H54.4517ZM72.0351 101.417C72.2017 101.875 72.3267 102.375 72.3267 102.833V112.167H70.5351V103.875C70.5351 102.583 70.4517 102.25 70.1184 101.833C69.7851 101.5 69.3267 101.292 68.8684 101.333C67.9517 101.333 66.5351 102.125 65.7434 103.042V112.167H64.0351V102.708C64.0767 101.833 63.9517 100.958 63.6184 100.125L65.3684 99.625C65.6184 100.25 65.7851 100.875 65.7851 101.542C66.9517 100.25 68.1601 99.625 69.3684 99.625C70.4934 99.625 71.5767 100.333 72.0351 101.417ZM65.7434 52.2083C65.7017 49.5417 67.8267 47.2917 70.4934 47.25C73.0351 47.25 75.0767 49.4583 75.0767 52.2083C75.0767 54.9583 72.9934 57.1667 70.3684 57.1667C67.7434 57.1667 65.7434 54.9583 65.7434 52.2083ZM66.5767 61.2083L74.1601 59.9583V91.3333H66.5767V61.2083ZM77.2017 99.9583H80.1184L79.5767 101.417H77.1184V109.333C77.1184 110.708 77.4517 111.167 78.5767 111.167C79.0767 111.167 78.9517 111.167 79.2434 111L79.4934 112.25C79.0351 112.583 78.4934 112.708 77.9101 112.667C77.4101 112.667 76.8684 112.542 76.4101 112.333C75.6184 111.917 75.3267 111.125 75.3267 109.875V101.417H73.8684V99.9583H75.3267V95.2917H77.1601L77.2017 99.9583ZM50.1184 95.2917H48.3267V99.375C48.3267 100.25 48.3267 101.292 48.3267 101.292C47.6184 100.292 46.4934 99.7083 45.2851 99.7083C44.4934 99.7083 43.7017 99.9583 43.1184 100.458C41.5767 101.625 40.7851 103.542 40.7851 106.125C40.7851 110.042 42.4517 112.333 45.4101 112.333C46.5767 112.417 47.7017 111.875 48.4101 110.917C48.4517 111.333 48.5351 111.75 48.6601 112.167H50.4934C50.2434 111.458 50.1601 110.333 50.1601 108.208L50.1184 95.2917ZM48.3267 109.042C48.1601 109.375 47.9517 109.708 47.6601 109.917C47.0767 110.458 46.2851 110.75 45.4934 110.708C44.4934 110.75 43.6184 110.208 43.2017 109.292C42.8267 108.583 42.7434 107.542 42.7434 106.083C42.7434 104.375 42.9101 103.458 43.4934 102.542C43.9101 101.75 44.7434 101.25 45.6184 101.25C46.9517 101.25 47.7851 101.667 48.3684 102.542L48.3267 109.042ZM103.16 99.9167L99.2434 112.625C98.4517 115.083 97.5767 116.708 95.5767 117.25L95.035 115.917C96.16 115.542 96.7434 115 97.2017 113.667C97.0351 112.708 96.91 112.292 96.91 112.292C96.785 111.5 96.1601 109.125 95.7851 107.875L93.3267 100.208L95.0767 99.5833L97.4101 107.542C97.7434 108.708 98.0767 110.583 98.0767 110.583H98.1184L98.8267 108L101.077 99.9583L103.16 99.9167ZM104.66 109.958C104.66 109.542 104.41 109.375 103.952 109.375H103.243V111.417H103.618V110.5H103.827L104.327 111.375H104.702L104.16 110.5C104.452 110.5 104.66 110.292 104.66 110V109.958ZM103.618 110.208V109.625H103.952C104.118 109.625 104.327 109.667 104.327 109.917C104.327 110.167 104.16 110.208 103.952 110.208H103.618ZM103.91 108.583C102.91 108.542 102.077 109.292 101.993 110.292C101.952 111.292 102.702 112.125 103.702 112.208C104.702 112.25 105.535 111.5 105.618 110.5C105.618 110.458 105.618 110.417 105.618 110.375C105.618 109.417 104.868 108.583 103.91 108.583ZM103.91 111.833C103.118 111.917 102.368 111.375 102.285 110.583C102.202 109.792 102.743 109.042 103.535 108.958C104.327 108.875 105.077 109.417 105.16 110.208C105.16 110.25 105.16 110.333 105.16 110.375C105.243 111.125 104.66 111.75 103.91 111.833C103.91 111.792 103.91 111.792 103.91 111.833ZM122.243 83.5L118.16 83.4583C117.368 83.4583 116.91 83.1667 116.91 82.75C116.91 81.9167 117.993 81.2083 119.91 80.25C120.285 80.2917 120.66 80.3333 121.035 80.2917C127.202 80.2917 131.743 76.4583 131.743 71.1667C131.785 69.3333 131.202 67.5417 130.035 66.125C130.702 66.2083 131.368 66.2917 132.035 66.2917C134.118 66.2917 135.702 65.625 137.368 64L134.202 58.9167C132.452 60.5833 130.285 61.5417 128.202 61.5417C127.243 61.5417 126.202 61.2917 124.618 60.875C122.91 60.375 121.16 60.125 119.41 60.0833C111.993 60.0833 107.202 64.1667 107.202 70.4583C107.202 75 109.243 77.8333 113.41 78.9583C108.66 80.25 108.077 82.125 108.077 84.125C108.077 86.2083 108.91 87.5833 110.285 88.125C111.66 88.7083 113.868 89.0417 117.243 89.0833L120.452 89.125C123.452 89.1667 125.785 90.0417 125.785 92.7917C125.743 94.0833 125.035 95.25 123.91 95.9167C122.702 96.7083 121.077 96.9167 119.16 96.9167C115.66 96.9167 113.702 95.625 113.702 93.125C113.66 92.4583 113.785 91.7917 114.035 91.1667H107.035C106.535 92.125 106.327 93.2083 106.368 94.2917C106.368 96.375 107.243 98.3333 108.743 99.75C111.327 102.333 115.577 103.042 119.743 103.042C124.285 103.042 128.618 101.958 131.16 99.0833C132.743 97.3333 133.577 95.0833 133.493 92.75C133.493 90 132.702 87.875 130.993 86.2083C128.993 84.2917 126.66 83.5417 122.243 83.5ZM114.827 70.5417C114.827 67.6667 116.452 66 119.368 66C122.285 66 123.952 67.6667 123.952 70.5417C123.952 73.4167 122.327 74.9167 119.327 74.9167C116.618 74.9167 114.827 73.6667 114.827 70.5417ZM93.2017 66.9167C91.6601 66.9167 89.7017 68 87.9517 69.6667V91.3333H80.3684V69.125C80.4101 66.7083 80.0767 64.25 79.3684 61.9167L86.1184 59.875C86.7851 61.0417 87.1601 62.375 87.2017 63.7083C88.2851 62.875 89.3684 62.125 90.5351 61.4167C92.1601 60.5833 93.9517 60.125 95.7851 60.0833C99.0351 60.0833 101.827 61.875 102.743 64.5C103.16 65.9167 103.368 67.375 103.327 68.875V91.3333H95.8267V71.375C95.7434 67.9167 95.1601 66.9167 93.2017 66.9167ZM89.3267 101.375V109.292C89.3267 110.625 89.6601 111.125 90.7851 111.125C91.2851 111.125 91.1601 111.125 91.4517 110.958L91.7017 112.208C91.2434 112.542 90.7017 112.667 90.1184 112.625C89.6184 112.625 89.0767 112.5 88.6184 112.292C87.8267 111.875 87.535 111.083 87.535 109.833V101.375H86.0351V99.9167H87.535V95.25H89.3684V99.9167H92.2017L91.6601 101.375H89.3267ZM82.0767 99.9583L83.9101 99.6667V112.167H82.0767V99.9583Z" fill="white"></path> </g> <path d="M181.713 81.584V68.624H168.681V58.688H181.713V45.728H191.937V58.688H204.969V68.624H191.937V81.584H181.713Z" fill="black"></path> <g clip-path="url(#clip1_1_9726)"> <g clip-path="url(#clip2_1_9726)"> <path d="M263.419 29.8949L244.362 35.7794L226.785 67.4958H242.367L263.419 29.8949Z" fill="#032B75"></path> <path d="M226.939 73.4954L239.106 96.1051H254.965L242.045 73.4954H226.939Z" fill="#032B75"></path> <path d="M285.553 70.7795L275.886 52.8575C270.079 63.1227 259.652 81.5051 256.146 87.4433L260.987 96.1051H271.199L285.553 70.7795Z" fill="#F96700"></path> <path d="M253.254 82.2723L272.864 47.2492L266.488 35.4265C261.478 44.2724 251.144 62.5166 246.594 70.3499L253.254 82.2723Z" fill="#F96700"></path> <path d="M308.01 61.5346V68.8308H320.791V73.9557H308.01V84.0139H301.619V56.4097H322.487V61.5346H308.01Z" fill="#032B75"></path> <path d="M322.993 73.411C322.993 67.0202 327.926 62.486 334.67 62.486C341.414 62.486 346.309 67.0202 346.309 73.411C346.309 79.8019 341.414 84.3361 334.67 84.3361C327.926 84.3361 322.993 79.8019 322.993 73.411ZM340.071 73.411C340.071 69.7438 337.747 67.5342 334.67 67.5342C331.594 67.5342 329.223 69.7438 329.223 73.411C329.223 77.0783 331.594 79.2879 334.67 79.2879C337.747 79.2879 340.071 77.0783 340.071 73.411Z" fill="#032B75"></path> <path d="M362.313 62.486V68.1633C361.799 68.125 361.407 68.0866 360.932 68.0866C357.541 68.0866 355.293 69.9432 355.293 74.0018V84.0216H349.14V62.8005H355.017V65.6008C356.513 63.5447 359.037 62.486 362.313 62.486Z" fill="#032B75"></path> <path d="M387.124 62.8005V80.477C387.124 88.364 382.866 91.9929 375.21 91.9929C371.189 91.9929 367.284 91.0032 364.799 89.0775L367.246 84.6583C369.426 86.2348 372.051 87.0783 374.742 87.0674C379.084 87.0674 380.971 85.0956 380.971 81.2673V80.362C380.105 81.253 379.059 81.9493 377.903 82.4044C376.747 82.8595 375.507 83.0629 374.266 83.0012C368.389 83.0012 363.655 78.9349 363.655 72.7436C363.655 66.5522 368.389 62.486 374.266 62.486C377.227 62.486 379.667 63.4757 381.286 65.5241V62.8005H387.124ZM381.048 72.7359C381.048 69.621 378.723 67.5265 375.486 67.5265C372.248 67.5265 369.885 69.621 369.885 72.7359C369.885 75.8508 372.256 77.9452 375.486 77.9452C378.723 77.9452 381.048 75.8584 381.048 72.7359Z" fill="#032B75"></path> <path d="M412.135 75.1449H396.078C396.668 77.7841 398.916 79.4029 402.154 79.4029C403.134 79.443 404.112 79.282 405.028 78.9297C405.944 78.5774 406.778 78.0413 407.478 77.3545L410.754 80.9067C408.783 83.1546 405.821 84.3361 402.001 84.3361C394.666 84.3361 389.886 79.7175 389.886 73.411C389.886 67.0585 394.735 62.486 401.21 62.486C407.44 62.486 412.258 66.6673 412.258 73.4954C412.25 73.9634 412.174 74.6309 412.135 75.1449ZM396.001 71.5544H406.458C406.249 70.3187 405.61 69.1969 404.652 68.388C403.695 67.579 402.483 67.1352 401.229 67.1352C399.976 67.1352 398.764 67.579 397.807 68.388C396.849 69.1969 396.21 70.3187 396.001 71.5544Z" fill="#032B75"></path> <path d="M432.674 84.0216L427.349 76.3264H421.472V84.0216H415.081V56.4097H427.035C434.415 56.4097 439.026 60.238 439.026 66.4294C439.102 68.2918 438.596 70.1315 437.578 71.6933C436.561 73.2551 435.083 74.4614 433.349 75.1449L439.54 84.0216H432.674ZM426.682 61.6113H421.472V71.2398H426.682C430.587 71.2398 432.559 69.4292 432.559 66.4294C432.559 63.3913 430.587 61.6113 426.682 61.6113Z" fill="#032B75"></path> <path d="M440.906 73.411C440.906 67.0202 445.839 62.486 452.583 62.486C459.326 62.486 464.221 67.0202 464.221 73.411C464.221 79.8019 459.326 84.3361 452.583 84.3361C445.831 84.3361 440.906 79.8019 440.906 73.411ZM457.984 73.411C457.984 69.7438 455.659 67.5342 452.583 67.5342C449.506 67.5342 447.136 69.7438 447.136 73.411C447.136 77.0783 449.506 79.2879 452.583 79.2879C455.659 79.2879 457.984 77.0783 457.984 73.411Z" fill="#032B75"></path> <path d="M466.907 73.411C466.907 67.0202 471.84 62.486 478.745 62.486C483.202 62.486 486.716 64.4193 488.25 67.8871L483.478 70.4496C483.035 69.5663 482.353 68.8249 481.509 68.3096C480.666 67.7943 479.695 67.5257 478.706 67.5342C475.591 67.5342 473.144 69.7054 473.144 73.411C473.144 77.1167 475.591 79.2879 478.706 79.2879C479.696 79.3046 480.671 79.0394 481.516 78.5232C482.361 78.007 483.041 77.261 483.478 76.3725L488.25 78.9733C486.708 82.3644 483.202 84.3361 478.745 84.3361C471.84 84.3361 466.907 79.8019 466.907 73.411Z" fill="#032B75"></path> <path d="M500.457 75.6973L497.495 78.6127V84.0139H491.342V54.7525H497.495V71.3242L506.487 62.8005H513.821L504.983 71.7922L514.612 84.0215H507.154L500.457 75.6973Z" fill="#032B75"></path> <path d="M519.215 65.317C519.227 65.7903 519.098 66.2567 518.844 66.6562C518.59 67.0557 518.222 67.3704 517.788 67.5598C517.354 67.7492 516.874 67.8048 516.408 67.7194C515.942 67.6341 515.512 67.4117 515.174 67.0807C514.835 66.7497 514.603 66.3252 514.507 65.8615C514.411 65.3978 514.455 64.916 514.635 64.4777C514.814 64.0395 515.12 63.6648 515.514 63.4015C515.908 63.1383 516.371 62.9985 516.844 63C517.153 62.9936 517.46 63.0487 517.747 63.1622C518.034 63.2757 518.295 63.4453 518.516 63.661C518.737 63.8767 518.912 64.1343 519.032 64.4186C519.152 64.7029 519.214 65.0083 519.215 65.317ZM515.049 65.317C515.062 65.667 515.177 66.0056 515.38 66.2906C515.584 66.5756 515.867 66.7945 516.194 66.9199C516.52 67.0454 516.877 67.0719 517.219 66.9962C517.561 66.9205 517.873 66.7459 518.117 66.4941C518.36 66.2423 518.524 65.9245 518.588 65.5802C518.652 65.2359 518.614 64.8803 518.477 64.5578C518.341 64.2352 518.113 63.9599 517.821 63.7661C517.529 63.5724 517.187 63.4687 516.837 63.468C516.597 63.4685 516.36 63.5171 516.139 63.611C515.918 63.7049 515.719 63.8421 515.552 64.0145C515.385 64.1869 515.255 64.3911 515.168 64.6148C515.082 64.8385 515.041 65.0773 515.049 65.317ZM516.476 66.5292H515.939V64.2122C516.233 64.1593 516.531 64.1361 516.829 64.1431C517.108 64.1197 517.388 64.1784 517.634 64.3119C517.708 64.3739 517.766 64.4518 517.804 64.5395C517.843 64.6272 517.861 64.7225 517.857 64.8183C517.846 64.9484 517.793 65.0714 517.706 65.1684C517.619 65.2654 517.502 65.3311 517.374 65.3553V65.386C517.489 65.4332 517.589 65.511 517.664 65.6111C517.738 65.7112 517.784 65.8297 517.796 65.9538C517.819 66.1538 517.876 66.3483 517.964 66.5292H517.389C517.3 66.3502 517.238 66.1588 517.205 65.9614C517.159 65.7083 517.021 65.5932 516.722 65.5932H516.468V66.5292H516.476ZM516.491 65.2172H516.745C517.044 65.2172 517.282 65.1175 517.282 64.8797C517.282 64.6648 517.128 64.5267 516.791 64.5267C516.69 64.525 516.59 64.5353 516.491 64.5574V65.2172Z" fill="#032B75"></path> </g> </g> <defs> <clipPath id="clip0_1_9726"> <rect fill="white" height="125" transform="translate(22.7851 0.5)" width="125"></rect> </clipPath> <clipPath id="clip1_1_9726"> <rect fill="white" height="66.2103" transform="translate(226.785 29.8949)" width="292.43"></rect> </clipPath> <clipPath id="clip2_1_9726"> <rect fill="white" height="66.2103" transform="translate(226.785 29.8949)" width="292.43"></rect> </clipPath> </defs> </svg>